<svg width="77" height="52" viewBox="0 0 77 52" fill="none"
    xmlns="http://www.w3.org/2000/svg">
    <g id="Agricom Logo" clip-path="url(#clip0_8069_1579)">
        <g id="Layer 1">
            <path id="Vector" fill-rule="evenodd" clip-rule="evenodd" d="M42.9082 10.3618C39.4763 10.8962 36.8529 13.7973 36.8529 17.2986C36.8529 17.9267 36.9396 18.534 37.0958 19.117C40.5277 18.5861 43.1546 15.6815 43.1546 12.1802C43.1546 11.5521 43.0713 10.9413 42.9082 10.3584M26.6229 17.368C25.6374 17.9996 24.225 17.7671 23.295 16.7642C22.955 16.3999 22.7225 15.973 22.601 15.5393C23.5831 14.9077 24.9989 15.1402 25.9289 16.1465C26.2689 16.5144 26.498 16.9343 26.6229 17.368ZM31.8975 24.4436C31.37 25.8803 29.7044 26.7582 27.9415 26.4424C27.2996 26.3279 26.7235 26.0711 26.2481 25.7137C26.7756 24.2771 28.4412 23.4026 30.2075 23.7149C30.8495 23.8294 31.4256 24.0897 31.901 24.4436M35.3919 0C45.7433 0 54.1341 8.39426 54.1341 18.7457C54.1341 25.1411 50.9312 30.7836 46.0487 34.167C41.3953 33.754 34.7916 31.9183 34.7361 31.436V27.5459C34.7361 26.9144 34.6007 26.4043 35.0519 25.6964C35.5134 24.9711 36.315 23.9509 37.2589 23.1111C38.234 22.247 38.5081 22.5212 40.0801 22.5177C42.2489 22.5108 44.036 21.1088 44.3553 19.287C43.7168 18.9643 42.9776 18.7839 42.1865 18.7839C40.5728 18.7908 39.1709 19.5681 38.4283 20.7132C38.1993 21.0707 38.2305 21.1123 37.8974 21.4073C36.9257 22.2713 35.4509 23.6351 34.3925 24.808C34.3925 24.808 33.8026 23.1597 34.4272 21.7439C34.9582 20.5432 35.3503 18.3848 35.6938 16.2645C35.8361 15.4109 35.8639 15.043 36.2386 14.2866C36.4087 13.9499 36.5475 13.5891 36.6481 13.2073C37.297 10.7713 36.2699 8.33527 34.3197 7.42262C33.7644 8.04031 33.3341 8.81762 33.0982 9.70597C32.5742 11.677 33.1468 13.6515 34.4203 14.8175C35.1664 15.5011 34.8783 16.7989 34.6632 17.6595C34.3474 18.9331 33.8477 20.8069 33.6465 21.036C33.6465 21.036 31.96 18.3327 31.6511 15.6226V15.6052L31.6442 15.5601C31.6095 15.2651 31.5644 15.043 31.5193 14.8834C31.488 14.755 31.4533 14.6266 31.4117 14.4982C30.5927 11.7846 28.1671 10.0669 25.7658 10.3479C25.6061 11.271 25.6547 12.2635 25.9497 13.2525C26.5118 15.102 27.8166 16.4901 29.3539 17.0974C30.041 17.3646 30.5893 17.5173 31.0924 17.892C31.96 18.5444 32.6297 21.4524 32.7234 22.4969C32.7234 22.4969 30.9849 21.6953 29.2914 21.1123C28.8056 20.9457 28.7709 20.9804 28.4412 20.6161C28.1081 20.2448 27.709 19.9151 27.2406 19.6479C25.3632 18.5652 23.1181 18.8775 21.9243 20.2934C22.3165 20.8902 22.8647 21.4246 23.5484 21.8167C25.0232 22.6704 26.727 22.66 27.9693 21.9278C29.3435 21.1193 31.9253 23.3332 32.6575 24.3708C33.0392 24.9156 33.0253 25.5471 33.0184 26.3522L32.9941 31.3492C32.8969 32.5846 30.0202 33.0947 27.1261 34.3474C26.8658 34.4619 26.609 34.6042 26.3488 34.7291C26.1544 34.8263 25.9983 34.9686 25.8039 34.8506C20.3211 31.5782 16.6497 25.5888 16.6497 18.7422C16.6497 8.39426 25.0405 0 35.3919 0ZM31.0785 10.7991C29.1943 10.4659 27.7542 8.60594 27.7542 6.3677C27.7542 5.54875 27.9485 4.78532 28.2816 4.12599C30.1659 4.45913 31.606 6.31912 31.606 8.55736C31.606 9.37284 31.4117 10.1432 31.0785 10.7991Z" fill="#FFCD0A"/>
            <path id="Vector_2" fill-rule="evenodd" clip-rule="evenodd" d="M53.9988 39.4346C55.7686 39.4346 57.2052 40.8678 57.2052 42.6376C57.2052 44.4073 55.7686 45.8405 53.9988 45.8405C52.229 45.8405 50.7959 44.4073 50.7959 42.6376C50.7959 40.8678 52.229 39.4346 53.9988 39.4346ZM53.9988 37.6475C56.7576 37.6475 58.9889 39.8823 58.9889 42.6376C58.9889 45.3929 56.7576 47.6311 53.9988 47.6311C51.2401 47.6311 49.0088 45.3929 49.0088 42.6376C49.0088 39.8823 51.2401 37.6475 53.9988 37.6475Z" fill="white"/>
            <path id="Vector_3" fill-rule="evenodd" clip-rule="evenodd" d="M43.0262 37.7447C44.4629 37.7447 45.7572 38.3485 46.6664 39.3201L45.261 40.434C44.6815 39.8719 43.8973 39.5249 43.0262 39.5249C41.2565 39.5249 39.8198 40.9615 39.8198 42.7313C39.8198 44.501 41.253 45.9377 43.0262 45.9377C43.984 45.9377 44.8446 45.5178 45.4276 44.8515L46.6109 46.1979C45.7052 47.1383 44.4351 47.7213 43.0228 47.7213C40.2675 47.7213 38.0362 45.4866 38.0362 42.7313C38.0362 39.976 40.2675 37.7412 43.0228 37.7412" fill="white"/>
            <path id="Vector_4" fill-rule="evenodd" clip-rule="evenodd" d="M33.4938 37.8731H33.9067C34.3231 37.8731 34.6597 38.2097 34.6597 38.6226V46.6213C34.6597 47.0342 34.3231 47.3708 33.9067 47.3708H33.4938C33.0774 47.3708 32.7408 47.0342 32.7408 46.6213V38.6226C32.7408 38.2097 33.0774 37.8731 33.4938 37.8731Z" fill="white"/>
            <path id="Vector_5" d="M30.5615 38.9002C30.5615 39.0425 30.558 39.164 30.5511 39.2646C30.5441 39.3618 30.5303 39.4416 30.5094 39.4936C30.4886 39.5491 30.4643 39.5908 30.4331 39.622C30.4019 39.6498 30.3602 39.6671 30.3047 39.6671C30.2492 39.6671 30.1833 39.6533 30.1034 39.622C30.0236 39.5908 29.9334 39.563 29.8362 39.5353C29.7356 39.5075 29.6246 39.4797 29.5031 39.452C29.3782 39.4277 29.2463 39.4138 29.1006 39.4138C28.9305 39.4138 28.7605 39.445 28.5974 39.511C28.4308 39.5769 28.2573 39.6845 28.0769 39.8337C27.893 39.9829 27.7056 40.1842 27.5043 40.4306C27.303 40.6804 27.0844 40.9823 26.845 41.3432V47.1487C26.845 47.2008 26.8311 47.2459 26.8033 47.2806C26.7756 47.3153 26.7305 47.3465 26.668 47.3743C26.6055 47.3986 26.5188 47.4194 26.4112 47.4333C26.3002 47.4472 26.1579 47.4541 25.9879 47.4541C25.8178 47.4541 25.686 47.4472 25.5749 47.4333C25.4639 47.4194 25.3771 47.3986 25.3112 47.3743C25.2452 47.3465 25.2001 47.3153 25.1758 47.2806C25.1516 47.2459 25.1411 47.2008 25.1411 47.1487V38.3242C25.1411 38.2721 25.1516 38.227 25.1724 38.1923C25.1932 38.1542 25.2348 38.1229 25.2973 38.0952C25.3598 38.0639 25.4361 38.0466 25.5333 38.0362C25.6304 38.0258 25.7554 38.0223 25.915 38.0223C26.0746 38.0223 26.1926 38.0292 26.2898 38.0362C26.3904 38.0466 26.4667 38.0674 26.5223 38.0952C26.5778 38.1229 26.616 38.1576 26.6402 38.1923C26.6645 38.227 26.6784 38.2721 26.6784 38.3242V39.6081C26.9317 39.2542 27.1712 38.9662 27.3933 38.7441C27.6154 38.522 27.827 38.3485 28.0283 38.2201C28.2261 38.0917 28.4239 38.0049 28.6217 37.9564C28.8195 37.9078 29.0138 37.8835 29.2151 37.8835C29.3053 37.8835 29.4059 37.887 29.5205 37.8974C29.635 37.9078 29.753 37.9251 29.8744 37.9529C29.9993 37.9772 30.1104 38.0084 30.2075 38.0396C30.3082 38.0709 30.3776 38.1056 30.4192 38.1368C30.4609 38.1715 30.4886 38.1993 30.5025 38.2305C30.5164 38.2583 30.5303 38.2964 30.5407 38.3415C30.5511 38.3866 30.558 38.4561 30.5615 38.5428C30.565 38.633 30.5684 38.751 30.5684 38.9002" fill="white"/>
            <path id="Vector_6" fill-rule="evenodd" clip-rule="evenodd" d="M6.22543 42.8735H4.69857C4.21275 42.8735 3.7894 42.9117 3.42503 42.9915C3.06414 43.0679 2.76918 43.1859 2.52627 43.3351C2.2903 43.4878 2.11679 43.6647 2.00228 43.8799C1.89123 44.0916 1.83571 44.3379 1.83571 44.6121C1.83571 45.084 1.99187 45.4588 2.31459 45.7399C2.63731 46.0175 3.08149 46.1598 3.661 46.1598C4.126 46.1598 4.56324 46.0487 4.95883 45.8232C5.3579 45.6011 5.78126 45.261 6.21849 44.8029V42.8666L6.22543 42.8735ZM7.99867 47.0377C7.99867 47.114 7.97091 47.18 7.91539 47.2182C7.85987 47.2598 7.78006 47.2876 7.67595 47.3084C7.57532 47.3292 7.4261 47.3431 7.23177 47.3431C7.04786 47.3431 6.89517 47.3327 6.78413 47.3084C6.67655 47.2876 6.59327 47.2598 6.54122 47.2182C6.48916 47.1765 6.46487 47.121 6.46487 47.0377V46.1251C6.03805 46.5519 5.56611 46.8815 5.04212 47.114C4.51813 47.3465 3.9629 47.4611 3.37992 47.4611C2.86634 47.4611 2.40134 47.3986 1.9884 47.2771C1.57198 47.1522 1.2215 46.9683 0.930006 46.7358C0.638514 46.4998 0.409485 46.2118 0.246389 45.8648C0.0832921 45.5213 0.003479 45.1326 0.003479 44.6954C0.003479 44.1818 0.114523 43.7376 0.340082 43.3628C0.558701 42.9811 0.881424 42.6688 1.30478 42.4224C1.72467 42.1726 2.23478 41.9852 2.84205 41.8603C3.44585 41.7388 4.12947 41.6763 4.88943 41.6763H6.23237V41.3189C6.23237 38.6018 2.75877 38.9245 1.454 40.1946L0.503179 39.105C1.34989 38.2687 2.96351 37.7481 4.16764 37.7481C5.0907 37.7481 6.45793 38.0639 7.14155 38.7094C7.44345 38.9939 7.66207 39.3514 7.79741 39.7747C7.93621 40.1946 8.00561 40.6943 8.00561 41.2599V47.0377H7.99867Z" fill="white"/>
            <path id="Vector_7" fill-rule="evenodd" clip-rule="evenodd" d="M76.8948 47.2112C76.8948 47.2598 76.8809 47.3084 76.8531 47.3465C76.8254 47.3778 76.7837 47.409 76.7213 47.4402C76.6623 47.4645 76.5755 47.4819 76.468 47.4958C76.3569 47.5062 76.2216 47.5166 76.055 47.5166C75.8884 47.5166 75.7427 47.5096 75.6351 47.4958C75.5276 47.4819 75.4373 47.4611 75.3714 47.4402C75.3089 47.4125 75.2604 47.3778 75.2361 47.3465C75.2083 47.3084 75.1909 47.2633 75.1909 47.2112V42.0858C75.1909 41.711 75.1597 41.371 75.0903 41.0656C75.0209 40.7602 74.9099 40.493 74.7607 40.2675C74.6114 40.0454 74.4206 39.8788 74.1881 39.7608C73.9556 39.6428 73.6814 39.5839 73.3657 39.5839C72.977 39.5839 72.5814 39.7296 72.1893 40.0141C71.7972 40.3056 71.3599 40.7221 70.8914 41.2807V47.2112C70.8914 47.2598 70.8776 47.3084 70.8463 47.3465C70.8186 47.3778 70.7735 47.409 70.7075 47.4402C70.6451 47.4645 70.5548 47.4819 70.4438 47.4958C70.3328 47.5062 70.1974 47.5166 70.0309 47.5166C69.8643 47.5166 69.7359 47.5096 69.6214 47.4958C69.5069 47.4819 69.4132 47.4611 69.3542 47.4402C69.2882 47.4125 69.2397 47.3778 69.2188 47.3465C69.1946 47.3084 69.1841 47.2633 69.1841 47.2112V42.006C69.1841 41.6312 69.1425 41.2877 69.0696 40.9858C68.9933 40.6769 68.8788 40.4132 68.7296 40.1877C68.5803 39.9656 68.3895 39.7955 68.1605 39.681C67.928 39.563 67.6573 39.5006 67.3415 39.5006C66.9528 39.5006 66.5572 39.6463 66.1582 39.9343C65.7591 40.2258 65.3288 40.6422 64.8604 41.1975V47.2077C64.8604 47.2563 64.8465 47.3049 64.8187 47.3431C64.7909 47.3743 64.7493 47.4055 64.6868 47.4368C64.6244 47.4611 64.5411 47.4784 64.4266 47.4923C64.319 47.5027 64.1767 47.5131 64.0032 47.5131C63.8297 47.5131 63.6944 47.5062 63.5903 47.4923C63.4758 47.4784 63.389 47.4576 63.3231 47.4368C63.2571 47.409 63.212 47.3743 63.1877 47.3431C63.1635 47.3049 63.153 47.2598 63.153 47.2077V38.3797C63.153 38.3277 63.1635 38.2825 63.1843 38.2444C63.2086 38.2131 63.2433 38.1576 63.3092 38.1472C64.8048 37.9945 64.6279 38.7198 64.6973 39.5457C65.2178 38.987 65.7279 38.581 66.2206 38.3242C66.7099 38.0674 67.2096 37.9355 67.7059 37.9355C68.0945 37.9355 68.4381 37.9806 68.7434 38.0639C69.0488 38.1472 69.3195 38.2687 69.552 38.4214C69.7879 38.574 69.9857 38.7614 70.1488 38.9731C70.3154 39.1848 70.4507 39.4208 70.5653 39.6845C70.8741 39.3652 71.1656 39.0946 71.4432 38.869C71.7208 38.6434 71.988 38.4665 72.2448 38.3277C72.5016 38.1889 72.7514 38.0882 72.9944 38.0292C73.2407 37.9633 73.4836 37.9355 73.73 37.9355C74.3269 37.9355 74.8231 38.0362 75.2326 38.234C75.6386 38.4352 75.9613 38.7024 76.2146 39.0321C76.4645 39.3652 76.638 39.7574 76.749 40.2085C76.8531 40.6561 76.9087 41.1281 76.9087 41.6278V47.2077L76.8948 47.2112Z" fill="white"/>
            <path id="Vector_8" fill-rule="evenodd" clip-rule="evenodd" d="M16.15 39.2958C17.8539 39.2958 19.3183 40.8366 19.3183 42.5439C19.3183 44.2512 17.6804 45.6323 15.973 45.6323C14.2657 45.6323 12.8881 44.2512 12.8881 42.5439C12.8881 40.8366 14.4462 39.2958 16.1535 39.2958M15.9765 37.7377C17.1807 37.7377 18.2772 38.175 19.1205 38.9072C19.2246 38.2999 19.5681 37.9008 20.2621 37.9008C20.6786 37.9008 20.9492 38.286 20.9492 38.7024V46.7601L20.9423 46.8503C20.8382 52.4234 14.8973 53.3464 11.3821 50.2302L12.5203 48.7832C14.8487 51.1151 19.1517 50.5946 19.2003 47.0377L19.2142 45.8613C15.5879 48.9359 11.1704 46.2743 11.1704 42.5473C11.1704 39.8927 13.3219 37.7412 15.98 37.7412" fill="white"/>
            <path id="Vector_9" fill-rule="evenodd" clip-rule="evenodd" d="M26.6229 17.3715C26.498 16.9377 26.2689 16.5178 25.9289 16.15C24.9989 15.1471 23.5831 14.9146 22.601 15.5427C22.7225 15.9765 22.955 16.3999 23.295 16.7677C24.225 17.7706 25.6374 18.0031 26.6229 17.3715Z" fill="#568936"/>
            <path id="Vector_10" fill-rule="evenodd" clip-rule="evenodd" d="M32.9941 31.3492C32.9837 31.5054 32.9247 31.6546 32.824 31.7899L34.9929 31.6442C34.8333 31.5609 34.743 31.488 34.7326 31.436V27.5459C34.7326 26.9144 34.6008 26.4077 35.0519 25.6964C35.5134 24.9711 36.315 23.9509 37.2589 23.1111C38.234 22.247 38.5081 22.5212 40.0801 22.5177C42.2455 22.5073 44.0361 21.1088 44.3553 19.287C43.7168 18.9643 42.9777 18.7839 42.1865 18.7839C40.5729 18.7908 39.1709 19.5681 38.4283 20.7132C38.1993 21.0741 38.2305 21.1123 37.9009 21.4073C36.9292 22.2713 35.4544 23.6351 34.396 24.808C34.396 24.808 33.8061 23.1597 34.4307 21.7439C34.9651 20.5432 35.3538 18.3848 35.6973 16.2645C35.8361 15.4074 35.8674 15.0396 36.2421 14.2866C36.4122 13.9499 36.551 13.5891 36.6516 13.2073C37.3005 10.7678 36.2734 8.3318 34.3197 7.42262C33.7645 8.04031 33.3342 8.82109 33.0982 9.70597C32.5742 11.677 33.1468 13.6515 34.4203 14.8175C35.1664 15.5011 34.8784 16.7989 34.6632 17.6595C34.3474 18.9331 33.8477 20.8069 33.6465 21.036C33.6465 21.036 31.96 18.3327 31.6511 15.6226V15.6052L31.6442 15.5601C31.6095 15.2617 31.5644 15.043 31.5193 14.8834C31.488 14.755 31.4533 14.6266 31.4117 14.4982C30.5927 11.7846 28.1671 10.0669 25.7658 10.3514C25.6027 11.2745 25.6547 12.2669 25.9497 13.2559C26.5119 15.1055 27.8166 16.4936 29.3539 17.1008C30.041 17.368 30.5893 17.5207 31.0924 17.8955C31.96 18.5479 32.6297 21.4559 32.7269 22.5004C32.7269 22.5004 30.9883 21.6988 29.2914 21.1158C28.8056 20.9492 28.7709 20.9839 28.4413 20.6196C28.1081 20.2482 27.7091 19.9186 27.2406 19.6514C25.3633 18.5687 23.1181 18.881 21.9243 20.2968C22.3165 20.8937 22.8648 21.4246 23.5484 21.8167C25.0232 22.6704 26.727 22.6565 27.9693 21.9278C29.3435 21.1193 31.9253 23.3332 32.654 24.3708C33.0357 24.9156 33.0218 25.5471 33.0149 26.3522L32.9906 31.3492H32.9941Z" fill="#568936"/>
            <path id="Vector_11" fill-rule="evenodd" clip-rule="evenodd" d="M31.901 24.4436C31.4256 24.0897 30.8495 23.8329 30.2075 23.7149C28.4412 23.4026 26.779 24.2771 26.2481 25.7137C26.72 26.0677 27.2961 26.3279 27.9415 26.4424C29.7078 26.7548 31.37 25.8803 31.8975 24.4436" fill="#568936"/>
            <path id="Vector_12" fill-rule="evenodd" clip-rule="evenodd" d="M43.1546 12.1802C43.1546 11.5521 43.0713 10.9413 42.9082 10.3618C39.4763 10.8962 36.8528 13.7973 36.8528 17.2986C36.8528 17.9267 36.9396 18.534 37.0992 19.117C40.5312 18.5861 43.1581 15.6815 43.1581 12.1802" fill="#568936"/>
            <path id="Vector_13" fill-rule="evenodd" clip-rule="evenodd" d="M31.0785 10.7991C31.4117 10.1432 31.606 9.37631 31.606 8.55736C31.606 6.31912 30.1659 4.45912 28.2816 4.12599C27.9485 4.78532 27.7542 5.54875 27.7542 6.3677C27.7542 8.60941 29.1943 10.4659 31.0785 10.7991Z" fill="#568936"/>
        </g>
    </g>
    <defs>
        <clipPath id="clip0_8069_1579">
            <rect width="76.8948" height="52" fill="white"/>
        </clipPath>
    </defs>
</svg>
